<svg width="39" height="38" viewBox="0 0 39 38" fill="none" xmlns="http://www.w3.org/2000/svg">
<path d="M22.75 3.1665H9.75C8.88805 3.1665 8.0614 3.50013 7.4519 4.094C6.84241 4.68786 6.5 5.49332 6.5 6.33317V31.6665C6.5 32.5064 6.84241 33.3118 7.4519 33.9057C8.0614 34.4995 8.88805 34.8332 9.75 34.8332H29.25C30.112 34.8332 30.9386 34.4995 31.5481 33.9057C32.1576 33.3118 32.5 32.5064 32.5 31.6665V12.6665L22.75 3.1665Z" stroke="black" stroke-width="2" stroke-linecap="round" stroke-linejoin="round"/>
<path d="M22.75 3.1665V12.6665H32.5" stroke="black" stroke-width="2" stroke-linecap="round" stroke-linejoin="round"/>
<path d="M26 20.5835H13" stroke="black" stroke-width="2" stroke-linecap="round" stroke-linejoin="round"/>
<path d="M26 26.9165H13" stroke="black" stroke-width="2" stroke-linecap="round" stroke-linejoin="round"/>
<path d="M16.25 14.25H14.625H13" stroke="black" stroke-width="2" stroke-linecap="round" stroke-linejoin="round"/>
</svg>
