<svg width="33" height="32" viewBox="0 0 33 32" fill="none" xmlns="http://www.w3.org/2000/svg">
<path d="M20.6937 6.66683C22.0367 6.92092 23.271 7.55784 24.2386 8.49608C25.2061 9.43431 25.8629 10.6312 26.125 11.9335M20.6937 1.3335C23.484 1.63408 26.0859 2.84573 28.0723 4.76951C30.0587 6.69328 31.3115 9.21484 31.625 11.9202M30.25 22.5602V26.5602C30.2515 26.9315 30.1731 27.2991 30.0197 27.6393C29.8663 27.9795 29.6413 28.2849 29.3591 28.536C29.0769 28.787 28.7438 28.9781 28.381 29.0971C28.0182 29.2161 27.6339 29.2603 27.2525 29.2268C23.0214 28.781 18.9571 27.379 15.3862 25.1335C12.064 23.0864 9.24731 20.3551 7.13622 17.1335C4.81244 13.6551 3.3663 9.69482 2.91497 5.5735C2.88061 5.20479 2.9258 4.83318 3.04766 4.48233C3.16952 4.13148 3.36538 3.80908 3.62277 3.53566C3.88017 3.26223 4.19345 3.04378 4.54268 2.89419C4.89191 2.74461 5.26944 2.66718 5.65122 2.66683H9.77622C10.4435 2.66046 11.0904 2.8896 11.5964 3.31154C12.1023 3.73348 12.4328 4.31943 12.5262 4.96016C12.7003 6.24025 13.0232 7.49713 13.4887 8.70683C13.6737 9.18406 13.7138 9.70272 13.6041 10.2013C13.4944 10.7 13.2397 11.1576 12.87 11.5202L11.1237 13.2135C13.0811 16.5516 15.9313 19.3154 19.3737 21.2135L21.12 19.5202C21.4938 19.1617 21.9658 18.9146 22.48 18.8083C22.9942 18.7019 23.5291 18.7408 24.0212 18.9202C25.2687 19.3716 26.5649 19.6847 27.885 19.8535C28.5529 19.9449 29.1629 20.2711 29.599 20.7702C30.035 21.2692 30.2667 21.9063 30.25 22.5602Z" stroke="black" stroke-width="2" stroke-linecap="round" stroke-linejoin="round"/>
</svg>
